<svg class="icon" viewBox="0 0 1024 1024" xmlns="http://www.w3.org/2000/svg" width="200" height="200"><path d="M947.867 746.956L735.895 583.525c-17.492-13.486-31.678-6.512-31.678 15.581V704H384c-87.678 0-164.147-59.2-185.958-143.964-8.808-34.231-43.699-54.839-77.93-46.033-34.231 8.809-54.84 43.699-46.032 77.93 17.371 67.508 57.262 128.518 112.327 171.789 27.583 21.676 58.288 38.556 91.261 50.169C311.784 825.907 347.559 832 384 832h320.217v105.547c0 22.091 14.184 29.069 31.678 15.581l211.973-163.431c15.308-11.802 15.308-30.938-.001-42.741zM287.454 440.474c17.492 13.487 31.678 6.512 31.678-15.581V320H640c87.681 0 164.149 59.202 185.959 143.969 7.432 28.883 33.431 48.068 61.937 48.068 5.278 0 10.644-.658 15.992-2.034 34.231-8.808 54.842-43.697 46.034-77.929-17.369-67.51-57.261-128.521-112.326-171.794-27.583-21.676-58.288-38.557-91.262-50.17C712.217 198.093 676.441 192 640 192H319.132V86.453c0-22.091-14.184-29.069-31.678-15.581L75.481 234.303c-15.309 11.803-15.309 30.938 0 42.741l211.973 163.43z"/></svg>