<svg class="icon" viewBox="0 0 1252 1024" xmlns="http://www.w3.org/2000/svg" width="200" height="200"><path d="M317.834 203.667c-54.182 0-98.067 43.887-98.067 98.07v426.592c0 54.182 43.883 98.067 98.067 98.067h610.467c54.182 0 98.068-43.887 98.068-98.07V301.739c0-54.183-43.885-98.067-98.069-98.067H317.836v-.002h-.002z"/><path d="M1198.478 618.002c-26.478 0-48.053 21.576-48.053 48.053v212.807c0 26.968-22.067 49.033-49.034 49.033H868.238c-26.477 0-48.053 21.575-48.053 48.053S841.761 1024 868.238 1024h233.156c80.167 0 145.137-65.212 145.137-145.14V666.057c0-26.475-21.574-48.053-48.05-48.053h-.003zM48.149 412.062c26.478 0 48.054-21.576 48.054-48.054V151.203c0-26.968 22.064-49.034 49.034-49.034H376.43c26.475 0 48.051-21.574 48.051-48.05S402.906 6.065 376.428 6.065H145.235C65.067 6.065.097 71.278.097 151.203V364.01c0 26.476 21.576 48.051 48.054 48.051v-.002zM376.43 927.894H145.235c-26.969 0-49.034-22.065-49.034-49.032V666.056c0-26.478-21.574-48.053-48.05-48.053S.093 639.577.093 666.056v212.806C.094 959.03 65.308 1024 145.234 1024h231.194c26.476 0 48.051-21.573 48.051-48.054s-21.574-48.053-48.052-48.053h.002v.001zM867.748 102.17H1100.9c26.971 0 49.036 22.066 49.036 49.034V364.01c0 26.476 21.574 48.051 48.05 48.051s48.054-21.574 48.054-48.051v-212.81c0-79.924-65.214-145.14-145.139-145.14H867.747c-26.476 0-48.053 21.574-48.053 48.055s21.575 48.053 48.053 48.053z"/></svg>