<svg class="icon" viewBox="0 0 1024 1024" xmlns="http://www.w3.org/2000/svg" width="200" height="200"><path d="M853.623 943.388H622.022c-49.498 0-89.767-40.27-89.767-89.765V622.022c0-49.497 40.27-89.766 89.767-89.766h231.6c49.496 0 89.765 40.27 89.765 89.766v231.6c0 49.497-40.268 89.766-89.764 89.766zm-219.036-102.33h206.47V634.586h-206.47v206.47zm-232.609 102.33h-231.6c-49.498 0-89.766-40.27-89.766-89.765V622.022c0-49.497 40.27-89.766 89.765-89.766h231.601c49.498 0 89.766 40.27 89.766 89.766v231.6c-.001 49.497-40.27 89.766-89.766 89.766zm-219.035-102.33h206.47V634.586h-206.47v206.47zm670.68-349.314H622.022c-49.498 0-89.767-40.27-89.767-89.766v-231.6c0-49.498 40.27-89.766 89.767-89.766h231.6c49.496 0 89.765 40.27 89.765 89.765v231.601c0 49.497-40.268 89.766-89.764 89.766zM634.587 389.413h206.47v-206.47h-206.47v206.47zm-232.609 102.33h-231.6c-49.498 0-89.766-40.268-89.766-89.765v-231.6c0-49.498 40.27-89.766 89.765-89.766h231.601c49.498 0 89.766 40.27 89.766 89.765v231.601c-.001 49.497-40.27 89.766-89.766 89.766zm-219.035-102.33h206.47v-206.47h-206.47v206.47z"/></svg>