<svg class="icon" viewBox="0 0 1024 1024" xmlns="http://www.w3.org/2000/svg" width="200" height="200"><path d="M643.109 604.059c21.43 188.745-257.393 244.52-343.19 253.096 12.874-132.996-4.298-356.063 205.898-356.063-21.43-12.874 34.322-137.251 90.073-201.6 72.947-343.19-201.597-235.943-321.718-188.766C-227.738 479.64 119.729 861.45 136.899 882.88c373.336 346.993 796.612-222.423 677.804-403.241-12.914 7.75-120.14 120.122-171.594 124.419zm-210.216-437.56c44.433 0 80.43 36.016 80.43 80.429 0 44.433-35.997 80.432-80.43 80.432-44.431 0-80.43-35.998-80.43-80.432 0-44.413 35.999-80.429 80.43-80.429zM175.5 713.445c-44.412 0-80.43-36.015-80.43-80.428 0-44.434 36.017-80.432 80.43-80.432 44.433 0 80.43 35.998 80.43 80.432 0 44.412-35.996 80.428-80.43 80.428zm64.348-235.943c-44.411 0-80.43-35.998-80.43-80.43 0-44.43 36.019-80.43 80.43-80.43 44.433 0 80.45 36 80.45 80.43 0 44.432-36.017 80.43-80.45 80.43zM629.51 563.3c121.552-50.041 393.23-532.64 393.23-532.64L997.72 9.21S590.336 363.45 547.876 504.183c14.603 10.043 62.994 48.46 81.633 59.117zm-82.205-57.203c.178-.63.38-1.274.573-1.914-5.002-3.438-6.05-3.558-.573 1.914zm-125.145 64.346c-60.757 46.47-42.899 185.902-75.063 235.942 67.92-50.04 168.024-35.754 221.636-125.104 17.879-50.06-14.286-175.184-146.573-110.838z"/></svg>